<svg xmlns="http://www.w3.org/2000/svg" viewBox="0 0 512 512">
  <rect width="512" height="512" rx="100" fill="#3b82f6"/>
  <path d="M363.3 123.3L388.7 148.7C392.6 152.6 392.6 158.9 388.7 162.8L186.1 365.4C183.5 368 180 369.4 176.4 369.4H134.4C128.9 369.4 124.4 364.9 124.4 359.4V317.4C124.4 313.8 125.8 310.3 128.4 307.7L330.9 105.1C334.8 101.2 341.1 101.2 345 105.1L363.3 123.3ZM124.4 402.4C124.4 416.3 135.6 427.5 149.5 427.5H387.6C401.5 427.5 412.7 416.3 412.7 402.4V199.8C412.7 197 414.9 194.8 417.7 194.8H432.7C435.5 194.8 437.7 197 437.7 199.8V402.4C437.7 430.1 415.3 452.5 387.6 452.5H149.5C121.8 452.5 99.4 430.1 99.4 402.4V164.3C99.4 136.6 121.8 114.2 149.5 114.2H302.1C304.9 114.2 307.1 116.4 307.1 119.2V134.2C307.1 137 304.9 139.2 302.1 139.2H149.5C135.6 139.2 124.4 150.4 124.4 164.3V402.4Z" fill="white"/>
</svg>
